# xmcd CD database file
#
# Track frame offsets:
#	150
#	13847
#	29032
#	42730
#
# Disc length: 768 seconds
#
# Revision: 0
# Processed by: cddbd v1.5PL3 Copyright (c) Steve Scherf et al.
# Submitted via: CDex 1.51
#
DISCID=3502fe04
DTITLE=上原多香子 - ブルー・ライト・ヨコハマ
DYEAR=2004
DGENRE=JPop
TTITLE0=ブルー・ライト・ヨコハマ
TTITLE1=あなたならどうする
TTITLE2=ブルー・ライト・ヨコハマ (オリジナルカラオケ)
TTITLE3=あなたならどうする (オリジナルカラオケ)
EXTD=YEAR: 2004
EXTT0=
EXTT1=
EXTT2=
EXTT3=
PLAYORDER=
